<?xml version="1.0" encoding="UTF-8"?>
<svg width="1190px" height="206px" viewBox="0 0 1190 206" version="1.1" xmlns="http://www.w3.org/2000/svg" xmlns:xlink="http://www.w3.org/1999/xlink">
    <!-- Generator: Sketch 51.2 (57519) - http://www.bohemiancoding.com/sketch -->
    <title>Group</title>
    <desc>Created with Sketch.</desc>
    <g id="Symbols" stroke="none" stroke-width="1" fill="none" fill-rule="evenodd">
        <g id="EdHub-logo-trademark-Copy-2" transform="translate(0.000000, -199.000000)">
            <g id="Group" transform="translate(0.000000, 199.000000)">
                <g id="AMAEdHub-logo" fill-rule="nonzero">
                    <path d="M203.85069,133.426056 L169.572578,52.1134304 L140.710217,52.1134304 L140.710217,161.7274 L159.653887,161.7274 L160.104563,78.6190713 L195.280207,161.7274 L212.417353,161.7274 L247.146141,78.6190713 L247.596817,78.6190713 L247.596817,161.7274 L266.536668,161.7274 L266.536668,52.1134304 L238.575659,52.1134304 L203.85069,133.426056 Z M53.6686382,52.1134304 L0,161.723596 L22.5490777,161.723596 L34.2742926,136.568536 L97.4147656,136.568536 L108.689304,161.723596 L131.238382,161.723596 L78.0204199,52.1134304 L53.6686382,52.1134304 Z M42.8447754,118.151168 L65.8445291,69.1802174 L88.8442828,118.151168 L42.8447754,118.151168 Z M330.127817,52.1134304 L276.455359,161.723596 L299.008256,161.723596 L310.733471,136.568536 L373.870125,136.568536 L385.144664,161.723596 L407.697561,161.723596 L354.479598,52.1134304 L330.127817,52.1134304 Z M319.303954,118.151168 L342.303708,69.1802174 L365.303461,118.151168 L319.303954,118.151168 Z M412.204321,30.9987028 L412.204321,30.549777 L399.127078,0 L377.479352,0 L399.577754,42.6783809 C405.891037,35.9406904 412.654997,31.4476285 412.204321,30.9987028 Z M398.241003,89.7623212 L398.221906,89.8498237 C401.380458,91.6455267 404.088333,92.5433781 408.598913,93.8901554 C410.852293,90.7476752 414.007025,86.7035391 416.264224,84.4589104 C410.852293,83.1121332 405.440361,81.7653559 401.831134,79.9658485 L401.85023,79.8745416 C401.85023,79.8745416 398.691679,84.8165292 398.241003,89.7623212 Z M387.401863,78.6190713 C388.753891,82.659403 391.912442,86.2546133 396.419202,88.9481678 L396.873698,88.9481678 C399.127078,72.7754278 420.774803,50.7628487 451.443688,39.0831706 L452.34504,38.6342448 C455.499772,37.7363933 455.049096,38.6342448 458.207647,38.6342448 C462.267551,38.6342448 462.267551,38.1853191 468.577015,35.9406904 L482.108753,30.9987028 C482.108753,30.9987028 484.812809,30.1008513 486.168657,27.8524181 C487.070009,26.0567152 486.168657,23.3593563 485.717981,20.6658019 C485.717981,20.6658019 485.267304,19.7679504 484.812809,18.4173687 C484.362133,17.5233217 483.915276,17.0705915 483.915276,17.0705915 C482.559429,14.8259628 476.696822,14.8259628 471.28489,14.377037 C468.577015,14.377037 463.165084,12.5775296 460.911703,12.5775296 C457.756971,12.5775296 456.404943,12.5775296 454.59842,13.0264554 C452.795716,13.4791856 447.383785,15.7238143 445.581081,16.6216657 L444.225233,17.0705915 C405.440361,31.4476285 381.539255,60.6468239 387.401863,78.6190713 Z M453.697068,18.4173687 C456.404943,16.17274 460.010351,16.17274 460.911703,15.7238143 C461.362379,18.4173687 460.461027,19.7679504 459.108999,20.2168761 C455.499772,21.5636533 453.697068,18.8700989 453.697068,18.8700989 L453.697068,18.4173687 Z M430.697314,71.8775763 L423.898981,56.5342076 C423.898981,56.5342076 415.782994,62.8267768 412.173766,66.870913 L419.422775,81.3126257 C424.380212,75.9217124 430.242819,71.8775763 430.697314,71.8775763 Z M509.622906,126.684561 C505.563002,120.395796 498.344547,119.49414 496.992519,119.49414 C491.129912,124.436128 478.503345,128.480264 461.366199,128.480264 C461.816875,128.92919 460.461027,129.374311 457.756971,131.173818 L460.461027,137.462583 L464.520931,137.462583 C487.066189,137.466388 504.657831,132.97713 509.622906,126.684561 Z M454.147744,80.8637 C478.950202,69.6291431 502.404451,70.5307991 509.619086,81.7615515 L510.069762,82.659403 C511.872466,77.7174154 512.323142,72.326502 511.42179,68.2823659 C506.911211,51.6607002 479.400878,48.9671457 450.087841,62.4425268 C420.774803,75.9217124 400.929782,100.17892 405.440361,116.800586 C406.341713,120.840918 409.045769,123.987202 412.204321,126.231831 L412.204321,123.987202 C414.007025,109.168848 430.693495,91.6455267 454.147744,80.8637 Z M469.932862,179.695843 L483.460781,205.752558 L487.971361,205.752558 L473.988946,172.958152 C473.988946,172.954348 471.735566,175.202781 469.932862,179.695843 Z M448.735813,137.915314 L464.070255,167.563435 C465.872959,163.523103 468.126339,159.927893 468.580834,159.927893 L456.404943,132.075474 C451.894364,134.769029 448.735813,137.915314 448.735813,137.915314 Z M483.460781,147.799289 C469.932862,156.332682 460.911703,172.060301 463.165084,182.842128 C463.61576,185.535682 464.520931,187.335189 466.323635,188.678162 L466.323635,187.784115 C467.224987,178.349066 474.890298,166.669388 485.263485,159.482771 C496.538024,152.292351 507.361887,152.745081 510.520438,160.380623 C511.42179,157.683264 511.872466,154.540784 511.42179,151.394499 C509.16841,140.608868 496.992519,138.816969 483.460781,147.799289 Z M500.151071,155.887561 C496.541843,158.581115 491.580588,160.829549 484.816628,162.625251 L483.915276,163.070373 C483.915276,163.070373 481.658077,163.968224 475.799289,171.158645 L476.246146,171.158645 C491.580588,170.260794 504.207155,167.114509 509.16841,163.070373 C509.619086,162.625251 509.619086,163.070373 509.619086,162.625251 C508.267058,158.581115 505.563002,155.887561 500.151071,155.887561 Z M460.006532,163.972029 L459.108999,163.972029 C448.735813,163.074177 439.714654,161.278474 434.302722,158.581115 L433.852046,158.13219 C432.049342,162.625251 432.946875,164.420954 432.946875,164.86988 L433.40137,164.86988 C439.714654,168.01236 450.538517,170.260794 463.165084,169.811868 L460.006532,163.972029 Z M509.16841,84.4589104 C505.563002,77.2684896 495.185996,75.0238609 495.185996,75.4727867 C488.422037,81.7653559 474.443442,87.1524648 452.795716,88.0503163 L444.675909,88.0503163 C442.422529,89.400898 440.169149,90.7476752 440.169149,90.7476752 L443.323881,98.3870217 L443.774557,98.3870217 L455.950448,98.3870217 C481.658077,97.4853657 503.305803,92.0944524 509.16841,84.4589104 Z M428.89461,100.182725 L440.169149,122.195304 C440.169149,121.746378 444.675909,118.154972 449.186489,115.457613 L438.813302,92.0982569 C431.598666,97.03644 428.89461,100.182725 428.89461,100.182725 Z M435.65475,126.235635 C426.637411,124.436128 420.774803,122.195304 415.813548,119.045215 L415.362872,118.600093 C413.556349,123.093155 413.556349,125.78671 413.556349,127.582413 L414.007025,128.031338 C418.066928,130.272163 422.126831,132.5244 429.341467,134.320103 C432.950694,128.932994 433.852046,128.484069 435.65475,126.235635 Z M464.520931,125.337784 C484.362133,115.457613 503.756479,115.457613 510.520438,124.888858 L510.971114,125.337784 C512.323142,120.848526 512.773818,116.80439 511.42179,113.20918 C507.361887,99.7299944 484.362133,98.3870217 460.461027,110.062895 C436.556102,121.742574 420.770984,142.408375 424.830888,156.332682 C425.73224,159.478967 427.989439,162.172521 430.693495,163.972029 L430.693495,162.625251 C432.053162,150.496648 445.126585,134.769029 464.520931,125.337784 Z" id="Shape" fill="#8DA3B5"></path>
                    <path d="M750.72637,91.5662338 C742.698297,85.7298701 735.121326,80.1959891 719.520106,80.1959891 C692.710168,80.1959891 675.893268,98.6357958 675.893268,123.687563 C675.893268,151.651694 695.737898,168.245581 718.763174,168.245581 C737.395947,168.245581 746.788791,159.023739 751.028378,154.878176 L751.028378,165.48058 L769.512058,165.48058 L769.512058,53.7675385 L750.72637,53.7675385 L750.72637,91.5662338 Z M750.72637,139.971211 C743.45523,145.656333 735.878259,151.958055 723.006583,151.958055 C708.464304,151.958055 694.977143,142.43373 694.977143,124.300284 C694.977143,105.705358 709.221236,96.4835156 723.606777,96.4835156 C737.239208,96.4835156 744.969095,103.095476 750.72637,107.857638 L750.72637,139.971211 Z M588.402573,117.230722 L654.905594,117.230722 L654.905594,98.4806765 L588.402573,98.4806765 L588.402573,72.5137058 L665.659388,72.5137058 L665.659388,53.7675385 L566.891163,53.7675385 L566.891163,165.484458 L667.475261,165.484458 L667.475261,146.738291 L588.39875,146.738291 L588.39875,117.230722 L588.402573,117.230722 Z M1108.37316,80.009846 C1092.77576,80.009846 1085.19879,85.547605 1077.17072,91.3839686 L1077.17072,53.5813953 L1058.38503,53.5813953 L1058.38503,165.294437 L1076.86489,165.294437 L1076.86489,154.695911 C1080.80629,158.841474 1090.49732,168.063316 1109.13009,168.063316 C1132.15155,168.063316 1152,151.469429 1152,123.50142 C1152.00382,98.4496527 1135.18692,80.009846 1108.37316,80.009846 Z M1104.88668,151.771912 C1092.01501,151.771912 1084.43804,145.474068 1077.17072,139.785068 L1077.17072,107.671495 C1082.928,102.909333 1090.65024,96.3012504 1104.28267,96.3012504 C1118.67585,96.3012504 1132.91612,105.519215 1132.91612,124.118019 C1132.91612,142.247587 1119.43279,151.771912 1104.88668,151.771912 Z M915.557983,97.9493929 L841.638552,97.9493929 L841.638552,53.6899789 L820.127142,53.6899789 L820.127142,165.40302 L841.638552,165.40302 L841.638552,117.304404 L915.557983,117.304404 L915.557983,165.40302 L937.069393,165.40302 L937.069393,53.6899789 L915.557983,53.6899789 L915.557983,97.9493929 Z M1019.34949,139.711386 C1014.65115,145.54775 1008.59187,151.849471 993.59849,151.849471 C981.025,151.849471 976.177573,144.931151 976.177573,128.647502 L976.177573,82.8524071 L957.391884,82.8524071 L957.391884,135.709308 C957.391884,160.908439 972.243818,168.13312 989.205987,168.13312 C1005.72088,168.13312 1014.05096,160.908439 1019.6515,155.072075 L1019.6515,165.368118 L1038.13518,165.368118 L1038.13518,82.8524071 L1019.34949,82.8524071 L1019.34949,139.711386 Z" id="Shape" fill="#FFFFFF"></path>
                </g>
                <path d="M1162.704,57.16 L1156.496,57.16 L1156.496,72.456 L1152.08,72.456 L1152.08,57.16 L1146,57.16 L1146,53 L1162.704,53 L1162.704,57.16 Z M1177.744,66.632 L1171.408,59.272 L1171.408,72.456 L1167.12,72.456 L1167.12,53 L1171.024,53 L1178.128,61.448 L1185.36,53 L1189.136,53 L1189.136,72.456 L1184.912,72.456 L1184.912,59.208 L1178.448,66.632 L1177.744,66.632 Z" id="™" fill="#FFFFFF"></path>
            </g>
        </g>
    </g>
</svg>