<?xml version="1.0" encoding="utf-8"?>
<!-- Generator: Adobe Illustrator 27.4.1, SVG Export Plug-In . SVG Version: 6.00 Build 0)  -->
<svg version="1.1" id="Layer_1" xmlns="http://www.w3.org/2000/svg" xmlns:xlink="http://www.w3.org/1999/xlink" x="0px" y="0px"
	 viewBox="0 0 713.4 54.8" style="enable-background:new 0 0 713.4 54.8;" xml:space="preserve">
<style type="text/css">
	.st0{fill:#FFFFFF;}
</style>
<g>
	<polygon class="st0" points="679.8,29.5 694.7,16.5 689,16.5 669.6,33.5 669.6,3.1 665.3,3.1 665.3,51.6 669.6,51.6 669.6,38.3 
		676.5,32.5 690.4,51.6 695.7,51.6 	"/>
	<path class="st0" d="M648.6,24.8h-0.1v-8.2h-3.9v35h4.3V32.9c0-7.3,5.3-12.9,13-12.6V16C655.5,15.8,650.8,19.1,648.6,24.8z"/>
	<path class="st0" d="M524.4,15.5c-11.1,0-15.8,9.3-15.8,18.5c0,10,4.7,18.5,15.8,18.5c8.9,0,13.4-4.6,15.3-12.6h-4.3
		c-1.4,5.4-4.8,9-11,9c-8.1,0-11.6-7.5-11.6-13.8h27C540.2,25.4,535.6,15.5,524.4,15.5z M524.4,19.1c6.9,0,10.9,6.1,11.1,12.5h-22.7
		C513.6,25.2,517.4,19.1,524.4,19.1z"/>
	<path class="st0" d="M550.4,6h-4.3v10.5H540v3.6h6.1v24c-0.1,6,1.9,7.9,7.6,7.9c1.3,0,2.5-0.1,3.8-0.1v-3.7
		c-1.2,0.1-2.4,0.2-3.7,0.2c-3.1-0.2-3.5-1.8-3.5-4.6V20.1h7.1v-3.6h-7.1V6z"/>
	<path class="st0" d="M624.9,15.5c-10.7,0-16.6,8.5-16.6,18.5c0,10.1,5.9,18.5,16.6,18.5c10.7,0,16.6-8.5,16.6-18.5
		C641.5,24,635.5,15.5,624.9,15.5z M624.9,49c-8.2,0-12.3-7.5-12.3-14.9s4.1-14.9,12.3-14.9c8.1,0,12.3,7.5,12.3,14.9
		S633,49,624.9,49z"/>
	<polygon class="st0" points="500.2,44.1 500.1,44.1 471.8,3.1 466.7,3.1 466.7,51.6 471.3,51.6 471.3,10.6 471.4,10.6 499.7,51.6 
		504.8,51.6 504.8,3.1 500.2,3.1 	"/>
	<polygon class="st0" points="604.3,16.5 595.3,46.6 595.2,46.6 586.6,16.5 581.8,16.5 573.3,46.6 573.1,46.6 564.1,16.5 
		559.6,16.5 570.9,51.6 575.6,51.6 584.1,22.1 584.3,22.1 592.9,51.6 597.6,51.6 608.8,16.5 	"/>
	<g>
		<path class="st0" d="M703.4,11.3h-1.9v5.4h-1v-5.4h-1.9v-0.8h4.9L703.4,11.3L703.4,11.3z M711.5,16.7h-1v-5.2h0l-2,5.2h-0.6
			l-2-5.2h0v5.2h-1v-6.2h1.6l1.9,4.7l1.8-4.7h1.6L711.5,16.7L711.5,16.7z"/>
	</g>
</g>
<g>
	<path class="st0" d="M24.2,36.4c0,6-1.3,9.4-6.8,9.4c-5.2,0-6.7-3.2-6.7-8.7v-2.5H2.3v2.6c0,8.9,4.2,15.5,14.5,15.5
		c13.9,0,16-8.4,16-16.8V3.1h-8.5C24.2,3.1,24.2,36.4,24.2,36.4z"/>
	<path class="st0" d="M51.9,3.1L33.3,51.6h8.8l4.6-12.8H66l4.6,12.8h9.1L60.9,3.1H51.9z M48.9,32.3l7.3-20.9h0.2l7.3,20.9H48.9z"/>
	<polygon class="st0" points="108.2,41.1 108.1,41.1 94.7,3.1 82.8,3.1 82.8,51.6 90.8,51.6 90.8,14.2 91,14.2 104.4,51.6 
		111.4,51.6 124.9,14.2 125,14.2 125,51.6 133.1,51.6 133.1,3.1 121.3,3.1 	"/>
	<path class="st0" d="M154.9,3.1l-18.6,48.5h8.8l4.6-12.8h19.4l4.6,12.8h9.1L163.9,3.1H154.9z M151.9,32.3l7.3-20.9h0.2l7.3,20.9
		H151.9z"/>
	<path class="st0" d="M174.5,10.2c1.8,0,3.4-1.4,3.4-3.5s-1.6-3.5-3.4-3.5c-1.8,0-3.4,1.4-3.4,3.5C171.1,8.7,172.5,10.2,174.5,10.2z
		 M174.5,3.9c1.5,0,2.7,1.2,2.7,2.9c0,1.7-1.2,2.9-2.7,2.9c-1.6,0-2.7-1.3-2.7-2.9C171.8,5.1,173,3.9,174.5,3.9z"/>
	<path class="st0" d="M173.8,7.1h0.6l1,1.6h0.7L175,7c0.6-0.1,1-0.4,1-1c0-0.8-0.5-1.1-1.4-1.1h-1.5v3.8h0.6L173.8,7.1L173.8,7.1z
		 M173.8,5.4h0.8c0.4,0,0.8,0,0.8,0.5c0,0.6-0.4,0.6-0.9,0.6h-0.7L173.8,5.4L173.8,5.4z"/>
</g>
<path class="st0" d="M289.2,36.4c0,6-1.3,9.4-6.8,9.4c-5.2,0-6.7-3.2-6.7-8.7v-2.5h-8.5v2.6c0,8.9,4.2,15.5,14.5,15.5
	c13.9,0,16-8.4,16-16.8V3.1h-8.5C289.2,3.1,289.2,36.4,289.2,36.4z"/>
<path class="st0" d="M316.9,3.1l-18.6,48.5h8.8l4.5-12.8H331l4.6,12.8h9.1L325.9,3.1H316.9z M313.9,32.3l7.3-20.9h0.2l7.3,20.9
	H313.9z"/>
<polygon class="st0" points="373.2,41.1 373.1,41.1 359.7,3.1 347.7,3.1 347.7,51.6 355.8,51.6 355.8,14.2 356,14.2 369.4,51.6 
	376.4,51.6 389.9,14.2 390,14.2 390,51.6 398.1,51.6 398.1,3.1 386.3,3.1 "/>
<path class="st0" d="M419.9,3.1l-18.6,48.5h8.8l4.5-12.8h19.4l4.5,12.8h9.1L428.9,3.1H419.9z M416.9,32.3l7.3-20.9h0.2l7.3,20.9
	H416.9z"/>
<rect x="225.6" y="2.1" class="st0" width="2.7" height="51.2"/>
</svg>
